<svg xmlns="http://www.w3.org/2000/svg" width="81" height="30" viewBox="0 0 81 29.999998"><g><path d="M0 15v-15h80.846v30h-80.846v-15z" fill="#fefefe"/><path d="M42.237 29.899c-.533-4.639-.17-9.42 1.751-13.744 1.694-3.279-2.826-4.606-3.946-1.131-3.023 4.073 2.401 9.737-1.587 13.642-3.468 1.186-6.86-2.234-8.342-3.875-3.009 3.211-8.483 4.197-11.089-.114-2.59-4.016-7.773-4.98-11.835-6.918-4.623.313-2.25 8.038-6.17 8.42-2.323-3.532-.266-8.485.351-12.449 1.427-3.08.466-9.289 4.881-9.416 2.746-.657 5.132-3.023 8.181-2.789 6.792.411 4.689 9.453-.8 10.525-3.473 1.073-3.962 4.803.18 5.323 4.052 4.126 2.432-3.234 5.266-4.909 2.24-2.074 4.333-5.828 7.465-4.001 4.78-.367 8.627 6.505 3.182 8.965-2.978 3.07-8.795-1.753-9.577 3.264-.146 3.912 5.662 5.188 8.798 2.122 2.637-1.788 6.891-3.515 7.373-7.099.723-3.073 1.654-11.203 5.679-9.325 1.586 1.152 4.362 1.535 2.527 4.196 3.706-.336 3.258-7.128 5.183-9.922 5.522-2.273 2.674 4.923 1.232 7.541-2.92 5.066 8.759-.66 5.324 2.336-1.14 1.787-5.29 3.085-7.785 4.143-1.711 4.195-3.941 8.269-4.777 12.737-.398.725-.59 2.32-1.465 2.478zm-4.895-5.834c.307-2.563-.594-7.389-3.168-3.623-3.751 2.112-1.544 3.056 1.396 3.355.577.077 1.171.537 1.772.267zm-14.519-7.245c2.57-.105 6.361-6.924 1.928-3.758-.663.42-4.745 4.573-1.928 3.758zm-15.076-4.66c2.901-.909 7.489-3.991 7.196-6.936-3.737-.396-8.98 4.04-7.864 7.16l.667-.223zm46.311 16.56c-3.366-1.01-5.058-5.908-2.595-8.458.589-3.67 3.936-6.755 6.515-9.435 2.758-3.7 6.642-2.903 9.918-.276 2.229 5.148.314 12.286-4.786 14.762-2.891 1.296-5.799 3.844-9.051 3.408zm1.6-4.139c4.866-.649 7.662-4.678 8.283-9.463-.082-5.218-4.588.554-6.262 2.223-1.205 1.549-6.322 6.88-2.021 7.24zm16.934 1.242c-2.983-.623-4.671-4.846-1.214-5.764 1.51-.403 2.644 1.673 3.574 1.273 1.068-2.009 3.118-1.134 4.374-.358 2.571 1.392 1.534 6.136-1.56 4.827-2.642-2.932-2.385.892-5.174.022z" fill="#d0d0d0"/><path d="M42.27 29.875c-.469-4.639-.167-9.4 1.784-13.722 1.576-4.657-4.003-3.527-4.805.084-1.124 4.036 2.703 8.969-.946 12.409-3.595 1.301-6.66-2.873-8.378-3.769-3.358 3.733-9.062 3.443-11.589-1.085-1.787-3.406-6.433-3.285-9.288-5.48-4.847-2.351-5.128 4.489-6.776 7.524-4.218.524-1.603-7.708-1.173-10.644 1.556-3.467.48-10.029 4.907-10.805 2.667-.305 4.817-2.806 7.673-2.744 4.295-1.152 7.345 5.702 3.294 8.005-2.682 1.641-10.082 5.791-3.457 7.633 4.409 4.347 2.819-4.102 6.491-5.629 2.38-4.136 6.145-4.309 9.886-2.05 5.246 2.509 1.001 9.098-3.499 8.867-2.548.158-6.837-1.557-6.091 2.644-.49 2.824 3.949 4.507 6.658 2.974 3.363-2.078 7.446-3.921 9.388-7.583.312-3.744 1.291-8.16 4.069-10.62 1.568.547 6.187 1.752 4.092 4.768 3.8-.136 3.347-7.079 5.193-9.916 5.582-2.276 2.49 4.892 1.147 7.537-3.185 5.061 9.009-.665 5.068 2.275-.022 1.64-5.64 2.908-7.588 4.34-1.499 3.824-3.718 7.519-4.361 11.584-.41 1.038-.845 2.902-1.698 3.402zm-4.97-5.669c.655-2.959-.822-7.361-3.496-3.556-1.823 1.082-3.08 2.965-.109 2.884 1.261-.157 2.367.764 3.605.672zm-14.06-7.553c2.405-.138 6.113-6.931 1.59-3.729-.85.611-5.62 5.383-1.59 3.729zm-15.179-4.52c2.536-.73 8.722-5.077 6.323-7.017-3.688.068-8.379 4.174-7.363 7.351l.47-.14.57-.194zm46.498 16.616c-3.455-.771-5.25-5.042-3.507-8.07.659-2.704 3.016-5.629 5.095-7.923 1.823-2.157 4.381-4.237 6.545-4.612 4.97.404 7.24 5.123 5.725 9.897-.785 4.831-5.028 7.438-9.01 9.186-1.695.333-2.904 2.064-4.848 1.522zm1.798-4.235c4.716-.862 6.921-4.924 7.688-9.435-.206-5.258-5.043.783-6.717 2.569-1.466 1.347-6.327 8.264-.971 6.866zm16.801 1.381c-3.27-.1-5.4-5.452-1.42-5.582 1.648-.709 2.684 2.769 3.809.473 1.585-1.549 3.258.093 4.567 1.086 3.04 4.381-3.609 4.292-4.633 2.914-.604.441-1.475 1.352-2.323 1.109z" fill="#afafaf"/><path d="M42.275 29.774c-.271-4.401-.252-8.94 1.615-13.037 2.248-3.658-2.667-5.631-4.053-1.594-2.468 3.104.79 7.01-.019 10.379.052 3.988-4.148 3.688-6.407 2.125-2.334-.79-2.566-5.023-4.853-1.744-3.884 3.534-9.015.856-11.018-3.419-3.132-1.833-6.859-3.52-10.323-4.826-4.722.16-2.375 8.111-6.209 8.382-2.483-3.403.016-8.31.421-12.147 1.054-4.446 1.356-10.289 6.904-10.285 3.275-2.379 10.002-3.384 10.494 2.289.633 5.354-9.007 5.333-7.86 10.033 2.478.935 6.276 5.176 6.083.096 1.682-3.122 4.917-8.146 8.262-7.703 4.638-.602 10.238 5.49 4.684 8.828-2.911 3.39-8.829-1.688-9.808 3.127-.482 2.828 2.276 5.09 5.711 4.245 3.881-1.835 7.9-4.072 10.484-7.732-.325-3.353 1.755-6.147 2.255-9.344 1.633-3.069 7.34-.083 5.897 2.852 2.843 1.497 3.474-5.836 4.779-8.457 1.244-4.077 6.13.39 2.794 3.011-.645 2.148-3.791 6.798.863 5.515 1.654.068 5.38-1.702 3.148.246-1.44 2.674-7.819 2.165-8.672 6.219-2.22 4.096-3.082 8.696-4.925 12.874-.063-.071-.27.561-.247.067zm-4.882-5.612c.564-3.129-.957-7.658-3.785-3.403-5.364 3.434 1.884 2.496 3.785 3.403zm-14.608-7.211c2.62.07 6.637-7.241 2.044-4.076-.736.477-5.174 4.866-2.044 4.076zm-15.062-4.657c2.706-.745 8.882-4.904 6.777-7.295-3.361.622-6.943 2.422-7.7 6.233-.426.997-.495 1.96.923 1.062zm46.658 16.405c-3.62-.862-5.259-6.054-2.74-8.672.861-4.298 5.004-7.651 8.087-10.688 2.397-1.909 5.173-.589 7.869.961 2.139 4.034 1.086 9.519-1.779 12.877-3.37 2.608-7.279 5.143-11.437 5.522zm1.486-4.044c4.834-.738 7.55-4.79 8.216-9.54-.119-5.1-4.662.11-6.386 2.061-1.291 1.503-6.826 7.747-1.83 7.478zm17.397 1.216c-2.608-.473-5.366-3.638-2.543-5.484 1.888-1.455 3.442 2.432 4.527.708 1.653-1.392 3.389-.657 4.629.778 3.192 2.743-2.325 6.078-4.15 2.398-.335.577-1.453 1.796-2.463 1.599z" fill="#8f8f8f"/><path d="M42.274 29.429c-.247-4.183-.201-8.479 1.558-12.391 2.532-3.729-2.528-6.24-4.055-1.872-2.869 3.859 3.016 10.927-2.147 13.434-3.302.896-5.999-2.733-7.564-3.951-3.439 3.913-9.542 3.679-11.976-1.328-1.873-3.037-6.388-2.975-9.115-5.119-5.388-2.345-4.746 5.191-7.181 8.013-3.653-1.892-.887-7.578-.634-10.933 1.614-3.646.445-10.943 5.667-10.897 3.421-2.181 10.346-5.035 11.878.846.978 5.696-6.956 5.513-8.228 9.979 1.385 1.144 7.059 6.318 6.489 1.175 1.562-3.265 4.886-8.279 8.233-8.036 5.195-.824 10.473 6.406 4.061 9.165-2.998 2.691-9.503-2.076-9.021 3.646-.251 4.196 6.547 4.421 9.446 1.398 3.954-1.986 7.443-5.215 7.341-10.037.907-2.064 2.189-8.861 5.245-5.771 1.959.81 3.424 1.719 2.13 4.008 4.425.039 3.038-8.088 6.056-10.332 5.604-.26.019 6.546-.253 9.606 1.756 1.797 8.371-1.935 5.896.654-1.197 1.829-6.141 2.532-7.983 4.536-1.699 3.931-3.706 7.841-4.498 12.052-.12.026-1.15 3.504-1.344 2.156zm-4.852-5.262c.859-4.526-1.64-6.691-4.478-2.912-3.428 2.5 1.568 2.109 3.441 2.936.306.037.761.27 1.037-.023zm-14.5-7.24c2.361-.075 6.761-6.933 2.097-4.232-.732.414-5.673 5.281-2.097 4.232zm-15.672-4.442c3.302-.912 8.016-4.081 7.849-7.359-4.065-.176-8.198 2.936-8.613 7.335l.078.218.687-.194zm46.868 16.116c-3.264-.999-5.028-5.955-2.457-8.416.819-4.217 4.712-7.555 7.761-10.535 2.853-2.776 9.339-.544 9.189 4.221.56 5.09-2.179 10.196-6.835 12.058-2.529.953-4.831 3.158-7.658 2.672zm1.986-3.95c4.912-.841 7.334-5.07 8.094-9.817-.681-5.099-5.077 1.018-6.834 2.668-1.411 1.477-6.421 7.755-1.26 7.149zm17.162 1.22c-2.608-.473-5.366-3.638-2.543-5.484 1.888-1.455 3.442 2.432 4.527.708 1.653-1.392 3.389-.657 4.629.778 3.192 2.743-2.325 6.078-4.15 2.398-.335.577-1.453 1.796-2.463 1.599z" fill="#f24a4a"/><path d="M42.274 29.429c-.247-4.183-.201-8.479 1.558-12.391 2.532-3.729-2.528-6.24-4.055-1.872-2.869 3.859 3.016 10.927-2.147 13.434-3.302.896-5.999-2.733-7.564-3.951-3.439 3.913-9.542 3.679-11.976-1.328-1.873-3.037-6.388-2.975-9.115-5.119-5.388-2.345-4.746 5.191-7.181 8.013-3.653-1.892-.887-7.578-.634-10.933 1.614-3.646.445-10.943 5.667-10.897 3.421-2.181 10.346-5.035 11.878.846.978 5.696-6.956 5.513-8.228 9.979 1.385 1.144 7.059 6.318 6.489 1.175 1.562-3.265 4.886-8.279 8.233-8.036 5.195-.824 10.473 6.406 4.061 9.165-2.998 2.691-9.503-2.076-9.021 3.646-.251 4.196 6.547 4.421 9.446 1.398 3.954-1.986 7.443-5.215 7.341-10.037.907-2.064 2.189-8.861 5.245-5.771 1.959.81 3.424 1.719 2.13 4.008 4.425.039 3.038-8.088 6.056-10.332 5.604-.26.019 6.546-.253 9.606 1.756 1.797 8.371-1.935 5.896.654-1.197 1.829-6.141 2.532-7.983 4.536-1.699 3.931-3.706 7.841-4.498 12.052-.12.026-1.15 3.504-1.344 2.156zm-4.852-5.262c.859-4.526-1.64-6.691-4.478-2.912-3.428 2.5 1.568 2.109 3.441 2.936.306.037.761.27 1.037-.023zm-14.5-7.24c2.361-.075 6.761-6.933 2.097-4.232-.732.414-5.673 5.281-2.097 4.232zm-15.672-4.442c3.302-.912 8.016-4.081 7.849-7.359-4.065-.176-8.198 2.936-8.613 7.335l.078.218.687-.194zm46.868 16.116c-3.264-.999-5.028-5.955-2.457-8.416.819-4.217 4.712-7.555 7.761-10.535 2.853-2.776 9.339-.544 9.189 4.221.56 5.09-2.179 10.196-6.835 12.058-2.529.953-4.831 3.158-7.658 2.672zm1.986-3.95c4.912-.841 7.334-5.07 8.094-9.817-.681-5.099-5.077 1.018-6.834 2.668-1.411 1.477-6.421 7.755-1.26 7.149z" fill="#6f6f6f"/><path d="M42.347 29.599c-.275-4.254-.243-8.623 1.55-12.609 2.497-3.528-2.442-6.251-4.007-2.05-2.553 3.027.348 6.907-.071 10.287-.226 5.565-7.552 3.307-8.939-.324-2.41.434-8.106 5.2-11.053.388-2.522-4.45-7.678-5.237-11.804-7.571-5.082-.658-3.558 6.259-6.513 8.498-3.189-2.527-.541-7.422-.324-10.825 1.463-3.445.621-9.218 4.27-10.839 2.915.046 5.049-2.786 8.039-2.752 5.328-1.362 7.27 7.236 2.019 8.736-2.71 1.149-7.997 5.32-2.402 6.668 2.172 1.438 3.99 2.604 3.919-.891 1.794-3.177 5.126-9.085 8.848-7.768 5-.655 9.401 6.448 3.416 8.897-3.037 2.669-9.641-2.03-9.12 3.737-.465 3.653 5.927 4.843 8.64 1.921 2.694-1.85 7.193-3.597 7.68-7.307.509-2.975 1.184-6.658 3.006-8.961 1.423-2.26 4.102 1.051 5.348 1.669-1.947 4.102 2.935 2.144 2.578-.846 1.375-2.262 1.561-9.708 5.286-6.743 2.025 2.649-5.656 9.29-.671 9.564 2.559.052 5.447-1.481 3.672.597-3.335 2.424-8.409 2.428-9.16 7.514-1.902 3.484-2.306 7.869-4.208 11.01zm-4.894-5.354c.496-2.545-.597-7.911-3.313-4.012-1.58.826-4.036 3.608-.933 3.112 1.287.386 2.848 1.028 4.245.9zm-14.309-7.399c2.545-.018 6.432-7.162 1.765-4.126-.973.612-5.76 5.512-1.765 4.126zm-14.793-4.681c2.472-.818 8.688-5.13 6.169-7.242-3.235.595-6.763 2.246-7.671 5.854-.993 2.562-.238 1.967 1.502 1.387zm46.012 16.443c-3.32-.861-4.625-4.841-3.37-7.749 1.066-2.694 3.068-5.965 5.485-8.283 2.531-2.365 5.201-5.954 8.496-3.383 4.365.491 4.13 6.524 2.979 9.784-.976 4.928-6.053 6.925-9.949 8.674-.978.943-2.38 1.066-3.641.956zm1.612-3.883c5.011-.778 7.531-5.045 8.284-9.916-1.266-5.36-5.92 1.94-7.933 3.883-1.362 1.396-4.807 6.805-.351 6.034z" fill="#4c4c4c"/><path d="M42.348 29.072c-.287-4.348.044-8.75 1.848-12.775 1.8-3.535-2.993-5.311-4.296-1.464-3.245 4.031 2.212 9.564-1.525 13.574-3.711 1.491-6.622-3.126-8.484-3.751-3.082 3.365-8.543 3.782-11.04-.531-2.593-3.786-7.732-4.748-11.663-6.631-4.836-.162-2.524 8.892-6.381 8.129-1.947-3.231.182-6.843.477-10.406 1.537-3.426.461-10.016 4.881-10.678 2.664-.31 4.781-2.839 7.642-2.709 6.479-.651 5.855 8.673.216 9.655-3.44 1.055-5.165 5.171-.609 5.955 2.12 1.492 3.836 2.342 3.664-1.077 1.498-3.375 4.69-7.228 7.726-8.179 3.627.174 10.187 3.574 6.168 7.958-2.55 3.39-7.558 1.245-10.126 2.334-2.769 3.967 1.788 7.976 6.113 5.806 3.429-2.074 7.62-3.955 9.576-7.697-.06-3.283 1.489-6.56 2.631-9.391 1.529-2.398 3.075-.226 4.855.757 1.784.499-.962 4.393 2.25 2.821 2.071-3.239 1.786-8.408 4.757-10.615 4.343.927-.119 5.747-.518 8.499-1.954 4.4 8.471-.405 4.779 2.558-2.486 2.441-7.457 1.591-8.108 5.819-2.048 3.967-3.002 8.313-4.648 12.372-.247.53-.118-.238-.184-.332zm-4.962-4.71c.862-1.955-.475-8.39-3.151-4.287-1.843.97-4.198 3.838-.976 3.399 1.28.32 2.773.904 4.128.889zm-37.197-2.341c-.124.074.115.406 0 0zm22.959-5.101c2.942-.272 6.236-7.458 1.451-4.076-.853.695-5.66 5.524-1.451 4.076zm-15.465-4.467c3.14-.982 7.781-4.107 7.59-7.4-4.166-.56-9.328 3.63-8.565 7.676l.976-.276zm46.653 16.082c-3.249-1.043-4.221-4.316-3.51-7.525 1.275-1.96 2.331-4.897 4.356-6.954 2.01-1.811 3.812-4.886 6.408-5.225 2.099-1.383 7.78 1.54 6.929 5.289.405 4.609-1.867 9.467-6.089 11.308-2.631 1.114-5.172 3.326-8.094 3.108zm2.137-3.869c4.663-.873 7.041-4.875 7.698-9.432-.02-6.107-5.856.87-7.529 2.971-1.607 1.605-5.627 7.809-.168 6.461z" fill="none"/></g></svg>